<svg height="878" width="720" xmlns="http://www.w3.org/2000/svg">
<rect height="878" fill="#555" width="720"></rect>
<text fill="#7f7" font-family="Courier New" font-size="12" xml:space="preserve">
<tspan x="10" y="26">2 megabytes</tspan>
<tspan x="10" y="42">└─┬ sane@1.6.0 </tspan>
<tspan x="10" y="58">  ├─┬ anymatch@1.3.0 </tspan>
<tspan x="10" y="74">  │ ├── arrify@1.0.1 </tspan>
<tspan x="10" y="90">  │ └─┬ micromatch@2.3.11 </tspan>
<tspan x="10" y="106">  │   ├─┬ arr-diff@2.0.0 </tspan>
<tspan x="10" y="122">  │   │ └── arr-flatten@1.0.1 </tspan>
<tspan x="10" y="138">  │   ├── array-unique@0.2.1 </tspan>
<tspan x="10" y="154">  │   ├─┬ braces@1.8.5 </tspan>
<tspan x="10" y="170">  │   │ ├─┬ expand-range@1.8.2 </tspan>
<tspan x="10" y="186">  │   │ │ └─┬ fill-range@2.2.3 </tspan>
<tspan x="10" y="202">  │   │ │   ├── is-number@2.1.0 </tspan>
<tspan x="10" y="218">  │   │ │   ├─┬ isobject@2.1.0 </tspan>
<tspan x="10" y="234">  │   │ │   │ └── isarray@1.0.0 </tspan>
<tspan x="10" y="250">  │   │ │   ├── randomatic@1.1.6 </tspan>
<tspan x="10" y="266">  │   │ │   └── repeat-string@1.6.1 </tspan>
<tspan x="10" y="282">  │   │ ├── preserve@0.2.0 </tspan>
<tspan x="10" y="298">  │   │ └── repeat-element@1.1.2 </tspan>
<tspan x="10" y="314">  │   ├─┬ expand-brackets@0.1.5 </tspan>
<tspan x="10" y="330">  │   │ └── is-posix-bracket@0.1.1 </tspan>
<tspan x="10" y="346">  │   ├── extglob@0.3.2 </tspan>
<tspan x="10" y="362">  │   ├── filename-regex@2.0.0 </tspan>
<tspan x="10" y="378">  │   ├── is-extglob@1.0.0 </tspan>
<tspan x="10" y="394">  │   ├── is-glob@2.0.1 </tspan>
<tspan x="10" y="410">  │   ├─┬ kind-of@3.1.0 </tspan>
<tspan x="10" y="426">  │   │ └── is-buffer@1.1.5 </tspan>
<tspan x="10" y="442">  │   ├─┬ normalize-path@2.1.1 </tspan>
<tspan x="10" y="458">  │   │ └── remove-trailing-separator@1.0.1 </tspan>
<tspan x="10" y="474">  │   ├─┬ object.omit@2.0.1 </tspan>
<tspan x="10" y="490">  │   │ ├─┬ for-own@0.1.5 </tspan>
<tspan x="10" y="506">  │   │ │ └── for-in@1.0.2 </tspan>
<tspan x="10" y="522">  │   │ └── is-extendable@0.1.1 </tspan>
<tspan x="10" y="538">  │   ├─┬ parse-glob@3.0.4 </tspan>
<tspan x="10" y="554">  │   │ ├─┬ glob-base@0.3.0 </tspan>
<tspan x="10" y="570">  │   │ │ └── glob-parent@2.0.0 </tspan>
<tspan x="10" y="586">  │   │ └── is-dotfile@1.0.2 </tspan>
<tspan x="10" y="602">  │   └─┬ regex-cache@0.4.3 </tspan>
<tspan x="10" y="618">  │     ├── is-equal-shallow@0.1.3 </tspan>
<tspan x="10" y="634">  │     └── is-primitive@2.0.0 </tspan>
<tspan x="10" y="650">  ├─┬ exec-sh@0.2.0 </tspan>
<tspan x="10" y="666">  │ └── merge@1.2.0 </tspan>
<tspan x="10" y="682">  ├─┬ fb-watchman@1.9.2 </tspan>
<tspan x="10" y="698">  │ └─┬ bser@1.0.2 </tspan>
<tspan x="10" y="714">  │   └── node-int64@0.4.0 </tspan>
<tspan x="10" y="730">  ├─┬ minimatch@3.0.3 </tspan>
<tspan x="10" y="746">  │ └─┬ brace-expansion@1.1.7 </tspan>
<tspan x="10" y="762">  │   ├── balanced-match@0.4.2 </tspan>
<tspan x="10" y="778">  │   └── concat-map@0.0.1 </tspan>
<tspan x="10" y="794">  ├── minimist@1.2.0 </tspan>
<tspan x="10" y="810">  ├─┬ walker@1.0.7 </tspan>
<tspan x="10" y="826">  │ └─┬ makeerror@1.0.11 </tspan>
<tspan x="10" y="842">  │   └── tmpl@1.0.4 </tspan>
<tspan x="10" y="858">  └── watch@0.10.0</tspan>
</text>
</svg>
